<mxfile host="Electron" modified="2023-10-31T05:48:59.212Z" agent="Mozilla/5.0 (Windows NT 10.0; Win64; x64) AppleWebKit/537.36 (KHTML, like Gecko) draw.io/22.0.3 Chrome/114.0.5735.289 Electron/25.8.4 Safari/537.36" etag="RpwGVBmorAidfRH0Tp7h" version="22.0.3" type="device">
  <diagram name="第 1 页" id="6S_cd1dKeOsqHG_g3yqX">
    <mxGraphModel dx="1206" dy="702" grid="1" gridSize="10" guides="1" tooltips="1" connect="1" arrows="1" fold="1" page="1" pageScale="1" pageWidth="827" pageHeight="1169" math="0" shadow="0">
      <root>
        <mxCell id="0" />
        <mxCell id="1" parent="0" />
        <mxCell id="SSR0625xuPwoAyPUyHXI-32" style="edgeStyle=none;rounded=0;orthogonalLoop=1;jettySize=auto;html=1;exitX=0.5;exitY=0;exitDx=0;exitDy=0;entryX=0.5;entryY=1;entryDx=0;entryDy=0;endArrow=none;endFill=0;" parent="1" source="SSR0625xuPwoAyPUyHXI-1" target="SSR0625xuPwoAyPUyHXI-29" edge="1">
          <mxGeometry relative="1" as="geometry" />
        </mxCell>
        <mxCell id="SSR0625xuPwoAyPUyHXI-33" style="edgeStyle=none;rounded=0;orthogonalLoop=1;jettySize=auto;html=1;exitX=0.5;exitY=0;exitDx=0;exitDy=0;entryX=0.5;entryY=1;entryDx=0;entryDy=0;endArrow=none;endFill=0;" parent="1" source="SSR0625xuPwoAyPUyHXI-1" target="SSR0625xuPwoAyPUyHXI-30" edge="1">
          <mxGeometry relative="1" as="geometry" />
        </mxCell>
        <mxCell id="SSR0625xuPwoAyPUyHXI-34" style="edgeStyle=none;rounded=0;orthogonalLoop=1;jettySize=auto;html=1;exitX=0.5;exitY=0;exitDx=0;exitDy=0;entryX=0.5;entryY=1;entryDx=0;entryDy=0;endArrow=none;endFill=0;" parent="1" source="SSR0625xuPwoAyPUyHXI-1" target="SSR0625xuPwoAyPUyHXI-31" edge="1">
          <mxGeometry relative="1" as="geometry" />
        </mxCell>
        <mxCell id="5-bL30Y8_o1tEMgMU1dk-9" style="edgeStyle=orthogonalEdgeStyle;rounded=0;orthogonalLoop=1;jettySize=auto;html=1;exitX=0.5;exitY=1;exitDx=0;exitDy=0;endArrow=none;endFill=0;" edge="1" parent="1" source="SSR0625xuPwoAyPUyHXI-1" target="5-bL30Y8_o1tEMgMU1dk-8">
          <mxGeometry relative="1" as="geometry" />
        </mxCell>
        <mxCell id="SSR0625xuPwoAyPUyHXI-1" value="组织" style="rounded=0;whiteSpace=wrap;html=1;" parent="1" vertex="1">
          <mxGeometry x="354" y="150" width="120" height="60" as="geometry" />
        </mxCell>
        <mxCell id="SSR0625xuPwoAyPUyHXI-22" style="edgeStyle=none;rounded=0;orthogonalLoop=1;jettySize=auto;html=1;exitX=0.5;exitY=1;exitDx=0;exitDy=0;entryX=0.5;entryY=0;entryDx=0;entryDy=0;endArrow=none;endFill=0;" parent="1" source="SSR0625xuPwoAyPUyHXI-2" target="SSR0625xuPwoAyPUyHXI-20" edge="1">
          <mxGeometry relative="1" as="geometry" />
        </mxCell>
        <mxCell id="SSR0625xuPwoAyPUyHXI-23" style="edgeStyle=none;rounded=0;orthogonalLoop=1;jettySize=auto;html=1;exitX=0.5;exitY=1;exitDx=0;exitDy=0;entryX=0.5;entryY=0;entryDx=0;entryDy=0;endArrow=none;endFill=0;" parent="1" source="SSR0625xuPwoAyPUyHXI-2" target="SSR0625xuPwoAyPUyHXI-19" edge="1">
          <mxGeometry relative="1" as="geometry" />
        </mxCell>
        <mxCell id="SSR0625xuPwoAyPUyHXI-24" style="edgeStyle=none;rounded=0;orthogonalLoop=1;jettySize=auto;html=1;exitX=0.5;exitY=1;exitDx=0;exitDy=0;entryX=0.5;entryY=0;entryDx=0;entryDy=0;endArrow=none;endFill=0;" parent="1" source="SSR0625xuPwoAyPUyHXI-2" target="SSR0625xuPwoAyPUyHXI-21" edge="1">
          <mxGeometry relative="1" as="geometry" />
        </mxCell>
        <mxCell id="5-bL30Y8_o1tEMgMU1dk-1" style="edgeStyle=orthogonalEdgeStyle;rounded=0;orthogonalLoop=1;jettySize=auto;html=1;exitX=1;exitY=0.5;exitDx=0;exitDy=0;entryX=0;entryY=0.5;entryDx=0;entryDy=0;endArrow=none;endFill=0;" edge="1" parent="1" source="SSR0625xuPwoAyPUyHXI-2" target="SSR0625xuPwoAyPUyHXI-14">
          <mxGeometry relative="1" as="geometry" />
        </mxCell>
        <mxCell id="SSR0625xuPwoAyPUyHXI-2" value="人员" style="rounded=0;whiteSpace=wrap;html=1;" parent="1" vertex="1">
          <mxGeometry x="354" y="400" width="120" height="60" as="geometry" />
        </mxCell>
        <mxCell id="SSR0625xuPwoAyPUyHXI-3" value="角色" style="rounded=0;whiteSpace=wrap;html=1;" parent="1" vertex="1">
          <mxGeometry x="770" y="400" width="120" height="60" as="geometry" />
        </mxCell>
        <mxCell id="SSR0625xuPwoAyPUyHXI-5" value="1" style="text;html=1;strokeColor=none;fillColor=none;align=center;verticalAlign=middle;whiteSpace=wrap;rounded=0;" parent="1" vertex="1">
          <mxGeometry x="400" y="220" width="60" height="30" as="geometry" />
        </mxCell>
        <mxCell id="SSR0625xuPwoAyPUyHXI-6" value="n" style="text;html=1;strokeColor=none;fillColor=none;align=center;verticalAlign=middle;whiteSpace=wrap;rounded=0;" parent="1" vertex="1">
          <mxGeometry x="400" y="370" width="60" height="30" as="geometry" />
        </mxCell>
        <mxCell id="SSR0625xuPwoAyPUyHXI-10" value="1" style="text;html=1;strokeColor=none;fillColor=none;align=center;verticalAlign=middle;whiteSpace=wrap;rounded=0;" parent="1" vertex="1">
          <mxGeometry x="528" y="400" width="60" height="30" as="geometry" />
        </mxCell>
        <mxCell id="5-bL30Y8_o1tEMgMU1dk-2" style="edgeStyle=orthogonalEdgeStyle;rounded=0;orthogonalLoop=1;jettySize=auto;html=1;exitX=1;exitY=0.5;exitDx=0;exitDy=0;entryX=0;entryY=0.5;entryDx=0;entryDy=0;endArrow=none;endFill=0;" edge="1" parent="1" source="SSR0625xuPwoAyPUyHXI-14" target="SSR0625xuPwoAyPUyHXI-3">
          <mxGeometry relative="1" as="geometry" />
        </mxCell>
        <mxCell id="SSR0625xuPwoAyPUyHXI-14" value="拥有" style="rhombus;whiteSpace=wrap;html=1;" parent="1" vertex="1">
          <mxGeometry x="570" y="400" width="110" height="60" as="geometry" />
        </mxCell>
        <mxCell id="5-bL30Y8_o1tEMgMU1dk-24" style="rounded=0;orthogonalLoop=1;jettySize=auto;html=1;exitX=0.5;exitY=1;exitDx=0;exitDy=0;entryX=0.5;entryY=0;entryDx=0;entryDy=0;endArrow=none;endFill=0;" edge="1" parent="1" source="SSR0625xuPwoAyPUyHXI-19" target="5-bL30Y8_o1tEMgMU1dk-22">
          <mxGeometry relative="1" as="geometry" />
        </mxCell>
        <mxCell id="5-bL30Y8_o1tEMgMU1dk-25" style="rounded=0;orthogonalLoop=1;jettySize=auto;html=1;exitX=0.5;exitY=1;exitDx=0;exitDy=0;entryX=0.5;entryY=0;entryDx=0;entryDy=0;endArrow=none;endFill=0;" edge="1" parent="1" source="SSR0625xuPwoAyPUyHXI-19" target="5-bL30Y8_o1tEMgMU1dk-23">
          <mxGeometry relative="1" as="geometry" />
        </mxCell>
        <mxCell id="SSR0625xuPwoAyPUyHXI-19" value="工作信息" style="rounded=0;whiteSpace=wrap;html=1;" parent="1" vertex="1">
          <mxGeometry x="384" y="500" width="60" height="40" as="geometry" />
        </mxCell>
        <mxCell id="5-bL30Y8_o1tEMgMU1dk-17" style="rounded=0;orthogonalLoop=1;jettySize=auto;html=1;exitX=0.5;exitY=1;exitDx=0;exitDy=0;endArrow=none;endFill=0;" edge="1" parent="1" source="SSR0625xuPwoAyPUyHXI-20" target="5-bL30Y8_o1tEMgMU1dk-14">
          <mxGeometry relative="1" as="geometry" />
        </mxCell>
        <mxCell id="5-bL30Y8_o1tEMgMU1dk-18" style="rounded=0;orthogonalLoop=1;jettySize=auto;html=1;exitX=0.5;exitY=1;exitDx=0;exitDy=0;entryX=0.5;entryY=0;entryDx=0;entryDy=0;endArrow=none;endFill=0;" edge="1" parent="1" source="SSR0625xuPwoAyPUyHXI-20" target="5-bL30Y8_o1tEMgMU1dk-15">
          <mxGeometry relative="1" as="geometry" />
        </mxCell>
        <mxCell id="5-bL30Y8_o1tEMgMU1dk-19" style="rounded=0;orthogonalLoop=1;jettySize=auto;html=1;exitX=0.5;exitY=1;exitDx=0;exitDy=0;entryX=0.5;entryY=0;entryDx=0;entryDy=0;endArrow=none;endFill=0;" edge="1" parent="1" source="SSR0625xuPwoAyPUyHXI-20" target="5-bL30Y8_o1tEMgMU1dk-16">
          <mxGeometry relative="1" as="geometry" />
        </mxCell>
        <mxCell id="SSR0625xuPwoAyPUyHXI-20" value="个人信息" style="rounded=0;whiteSpace=wrap;html=1;" parent="1" vertex="1">
          <mxGeometry x="304" y="500" width="60" height="40" as="geometry" />
        </mxCell>
        <mxCell id="5-bL30Y8_o1tEMgMU1dk-28" style="rounded=0;orthogonalLoop=1;jettySize=auto;html=1;exitX=0.5;exitY=1;exitDx=0;exitDy=0;entryX=0.5;entryY=0;entryDx=0;entryDy=0;endArrow=none;endFill=0;" edge="1" parent="1" source="SSR0625xuPwoAyPUyHXI-21" target="5-bL30Y8_o1tEMgMU1dk-27">
          <mxGeometry relative="1" as="geometry" />
        </mxCell>
        <mxCell id="5-bL30Y8_o1tEMgMU1dk-29" style="rounded=0;orthogonalLoop=1;jettySize=auto;html=1;exitX=0.5;exitY=1;exitDx=0;exitDy=0;entryX=0.5;entryY=0;entryDx=0;entryDy=0;endArrow=none;endFill=0;" edge="1" parent="1" source="SSR0625xuPwoAyPUyHXI-21" target="5-bL30Y8_o1tEMgMU1dk-26">
          <mxGeometry relative="1" as="geometry" />
        </mxCell>
        <mxCell id="SSR0625xuPwoAyPUyHXI-21" value="账号信息信息" style="rounded=0;whiteSpace=wrap;html=1;" parent="1" vertex="1">
          <mxGeometry x="464" y="500" width="60" height="40" as="geometry" />
        </mxCell>
        <mxCell id="5-bL30Y8_o1tEMgMU1dk-11" style="rounded=0;orthogonalLoop=1;jettySize=auto;html=1;exitX=0;exitY=0.5;exitDx=0;exitDy=0;entryX=1;entryY=0.5;entryDx=0;entryDy=0;endArrow=none;endFill=0;" edge="1" parent="1" source="SSR0625xuPwoAyPUyHXI-25" target="SSR0625xuPwoAyPUyHXI-3">
          <mxGeometry relative="1" as="geometry" />
        </mxCell>
        <mxCell id="SSR0625xuPwoAyPUyHXI-25" value="访问权限范围" style="rounded=0;whiteSpace=wrap;html=1;" parent="1" vertex="1">
          <mxGeometry x="960" y="440" width="60" height="40" as="geometry" />
        </mxCell>
        <mxCell id="SSR0625xuPwoAyPUyHXI-29" value="名称" style="rounded=0;whiteSpace=wrap;html=1;" parent="1" vertex="1">
          <mxGeometry x="313" y="80" width="56" height="30" as="geometry" />
        </mxCell>
        <mxCell id="SSR0625xuPwoAyPUyHXI-30" value="描述" style="rounded=0;whiteSpace=wrap;html=1;" parent="1" vertex="1">
          <mxGeometry x="387" y="80" width="56" height="30" as="geometry" />
        </mxCell>
        <mxCell id="SSR0625xuPwoAyPUyHXI-31" value="子组织" style="rounded=0;whiteSpace=wrap;html=1;" parent="1" vertex="1">
          <mxGeometry x="530" y="30" width="56" height="30" as="geometry" />
        </mxCell>
        <mxCell id="SSR0625xuPwoAyPUyHXI-35" value="1" style="text;html=1;strokeColor=none;fillColor=none;align=center;verticalAlign=middle;whiteSpace=wrap;rounded=0;" parent="1" vertex="1">
          <mxGeometry x="440" y="120" width="60" height="30" as="geometry" />
        </mxCell>
        <mxCell id="SSR0625xuPwoAyPUyHXI-36" value="n" style="text;html=1;strokeColor=none;fillColor=none;align=center;verticalAlign=middle;whiteSpace=wrap;rounded=0;" parent="1" vertex="1">
          <mxGeometry x="540" y="60" width="60" height="30" as="geometry" />
        </mxCell>
        <mxCell id="5-bL30Y8_o1tEMgMU1dk-3" value="n" style="text;html=1;strokeColor=none;fillColor=none;align=center;verticalAlign=middle;whiteSpace=wrap;rounded=0;" vertex="1" parent="1">
          <mxGeometry x="680" y="400" width="60" height="30" as="geometry" />
        </mxCell>
        <mxCell id="5-bL30Y8_o1tEMgMU1dk-10" style="edgeStyle=orthogonalEdgeStyle;rounded=0;orthogonalLoop=1;jettySize=auto;html=1;exitX=0.5;exitY=1;exitDx=0;exitDy=0;entryX=0.5;entryY=0;entryDx=0;entryDy=0;endArrow=none;endFill=0;" edge="1" parent="1" source="5-bL30Y8_o1tEMgMU1dk-8" target="SSR0625xuPwoAyPUyHXI-2">
          <mxGeometry relative="1" as="geometry" />
        </mxCell>
        <mxCell id="5-bL30Y8_o1tEMgMU1dk-8" value="包含" style="rhombus;whiteSpace=wrap;html=1;" vertex="1" parent="1">
          <mxGeometry x="359" y="280" width="110" height="60" as="geometry" />
        </mxCell>
        <mxCell id="5-bL30Y8_o1tEMgMU1dk-13" style="rounded=0;orthogonalLoop=1;jettySize=auto;html=1;exitX=0;exitY=0.5;exitDx=0;exitDy=0;entryX=1;entryY=0.5;entryDx=0;entryDy=0;endArrow=none;endFill=0;" edge="1" parent="1" source="5-bL30Y8_o1tEMgMU1dk-12" target="SSR0625xuPwoAyPUyHXI-3">
          <mxGeometry relative="1" as="geometry" />
        </mxCell>
        <mxCell id="5-bL30Y8_o1tEMgMU1dk-12" value="名称" style="rounded=0;whiteSpace=wrap;html=1;" vertex="1" parent="1">
          <mxGeometry x="960" y="365" width="60" height="40" as="geometry" />
        </mxCell>
        <mxCell id="5-bL30Y8_o1tEMgMU1dk-14" value="姓名" style="rounded=0;whiteSpace=wrap;html=1;" vertex="1" parent="1">
          <mxGeometry x="240" y="560" width="40" height="35" as="geometry" />
        </mxCell>
        <mxCell id="5-bL30Y8_o1tEMgMU1dk-15" value="年龄" style="rounded=0;whiteSpace=wrap;html=1;" vertex="1" parent="1">
          <mxGeometry x="300" y="560" width="36" height="35" as="geometry" />
        </mxCell>
        <mxCell id="5-bL30Y8_o1tEMgMU1dk-16" value="性别" style="rounded=0;whiteSpace=wrap;html=1;" vertex="1" parent="1">
          <mxGeometry x="348" y="560" width="36" height="35" as="geometry" />
        </mxCell>
        <mxCell id="5-bL30Y8_o1tEMgMU1dk-22" value="编号" style="rounded=0;whiteSpace=wrap;html=1;" vertex="1" parent="1">
          <mxGeometry x="369" y="640" width="36" height="35" as="geometry" />
        </mxCell>
        <mxCell id="5-bL30Y8_o1tEMgMU1dk-23" value="工作地点" style="rounded=0;whiteSpace=wrap;html=1;" vertex="1" parent="1">
          <mxGeometry x="424" y="640" width="56" height="35" as="geometry" />
        </mxCell>
        <mxCell id="5-bL30Y8_o1tEMgMU1dk-26" value="密码" style="rounded=0;whiteSpace=wrap;html=1;" vertex="1" parent="1">
          <mxGeometry x="528" y="567" width="36" height="35" as="geometry" />
        </mxCell>
        <mxCell id="5-bL30Y8_o1tEMgMU1dk-27" value="用户名" style="rounded=0;whiteSpace=wrap;html=1;" vertex="1" parent="1">
          <mxGeometry x="450" y="567" width="56" height="35" as="geometry" />
        </mxCell>
      </root>
    </mxGraphModel>
  </diagram>
</mxfile>
